<svg xmlns="http://www.w3.org/2000/svg" viewBox="0 0 512 200" width="512" height="200">
  <!-- Background -->
  <rect width="512" height="200" rx="24" fill="#2563eb" />

  <!-- F -->
  <path d="M30,160 L30,40 L100,40 L100,58 L52,58 L52,92 L92,92 L92,110 L52,110 L52,160Z" fill="#ffffff"/>

  <!-- L -->
  <path d="M110,160 L110,40 L132,40 L132,142 L190,142 L190,160Z" fill="#ffffff"/>

  <!-- O as Swirl/Vortex -->
  <g transform="translate(256,100)">
    <!-- Blade 1 (top) -->
    <path d="M0,-52 C28,-52 52,-28 52,0 C52,-14 28,-34 0,-34 C-17,-34 -31,-24 -38,-10 C-31,-31 -17,-52 0,-52Z" fill="#ffffff"/>
    <!-- Blade 2 (right) -->
    <path d="M52,0 C52,28 28,52 0,52 C14,52 34,28 34,0 C34,-17 24,-31 10,-38 C31,-31 52,-17 52,0Z" fill="#ffffff"/>
    <!-- Blade 3 (bottom) -->
    <path d="M0,52 C-28,52 -52,28 -52,0 C-52,14 -28,34 0,34 C17,34 31,24 38,10 C31,31 17,52 0,52Z" fill="#ffffff"/>
    <!-- Blade 4 (left) -->
    <path d="M-52,0 C-52,-28 -28,-52 0,-52 C-14,-52 -34,-28 -34,0 C-34,17 -24,31 -10,38 C-31,31 -52,17 -52,0Z" fill="#ffffff" opacity="0.7"/>
  </g>

  <!-- W -->
  <path d="M320,40 L340,40 L358,130 L378,40 L398,40 L418,130 L436,40 L456,40 L428,160 L408,160 L388,70 L368,160 L348,160Z" fill="#ffffff"/>
</svg>
