<svg xmlns="http://www.w3.org/2000/svg" viewBox="0 0 128 128" width="128" height="128">
  <!-- Background -->
  <rect width="128" height="128" rx="28" fill="#2563eb" />

  <!-- Swirl/Vortex symbol (the O from FLOW) centered -->
  <g transform="translate(64,64)">
    <!-- Blade 1 -->
    <path d="M0,-30 C16,-30 30,-16 30,0 C30,-8 16,-20 0,-20 C-10,-20 -18,-14 -22,-6 C-18,-18 -10,-30 0,-30Z" fill="#ffffff"/>
    <!-- Blade 2 -->
    <path d="M30,0 C30,16 16,30 0,30 C8,30 20,16 20,0 C20,-10 14,-18 6,-22 C18,-18 30,-10 30,0Z" fill="#ffffff"/>
    <!-- Blade 3 -->
    <path d="M0,30 C-16,30 -30,16 -30,0 C-30,8 -16,20 0,20 C10,20 18,14 22,6 C18,18 10,30 0,30Z" fill="#ffffff"/>
    <!-- Blade 4 -->
    <path d="M-30,0 C-30,-16 -16,-30 0,-30 C-8,-30 -20,-16 -20,0 C-20,10 -14,18 -6,22 C-18,18 -30,10 -30,0Z" fill="#ffffff" opacity="0.7"/>
  </g>
</svg>
